<?xml version="1.0" standalone="no"?>
<!DOCTYPE svg PUBLIC "-//W3C//DTD SVG 20010904//EN"
 "http://www.w3.org/TR/2001/REC-SVG-20010904/DTD/svg10.dtd">
<svg version="1.0" xmlns="http://www.w3.org/2000/svg"
 width="512.000000pt" height="512.000000pt" viewBox="0 0 512.000000 512.000000"
 preserveAspectRatio="xMidYMid meet">

<g transform="translate(0.000000,512.000000) scale(0.100000,-0.100000)"
fill="#000000" stroke="none">
<path d="M2025 4437 c-125 -49 -175 -131 -175 -288 l0 -89 -692 0 c-406 0
-722 -5 -762 -10 -187 -27 -337 -166 -381 -352 -22 -94 -22 -2002 0 -2096 44
-186 194 -325 381 -352 38 -5 126 -10 197 -10 l127 0 0 -265 c0 -252 1 -266
20 -285 19 -19 33 -20 355 -20 322 0 336 1 355 20 19 19 20 33 20 285 l0 265
1090 0 1090 0 0 -265 c0 -252 1 -266 20 -285 19 -19 33 -20 355 -20 322 0 336
1 355 20 19 19 20 33 20 285 l0 265 128 0 c70 0 158 5 196 10 182 27 331 161
378 339 15 60 17 153 17 1061 0 908 -2 1001 -17 1061 -47 178 -196 312 -378
339 -40 5 -355 10 -760 10 l-692 0 -4 103 c-4 112 -17 147 -72 205 -17 19 -49
43 -71 55 -39 22 -48 22 -555 24 -379 1 -523 -1 -545 -10z m-509 -1025 c-3
-10 -16 -44 -29 -77 l-23 -60 -266 -3 -265 -2 -82 31 c-44 17 -81 33 -81 36 0
15 36 62 59 76 23 14 69 17 359 17 315 0 333 -1 328 -18z m108 -3 c55 -43 56
-52 56 -387 0 -298 -1 -310 -20 -327 -20 -18 -22 -18 -85 45 l-65 64 0 226 0
225 32 87 c18 48 38 88 44 88 6 0 23 -9 38 -21z m1426 14 c0 -3 -12 -39 -27
-80 l-28 -73 -264 0 -265 0 -83 31 -82 31 14 28 c8 16 27 38 41 49 26 20 37
21 360 21 184 0 334 -3 334 -7z m100 -9 c59 -35 60 -42 60 -385 0 -279 -2
-314 -17 -331 -16 -18 -19 -16 -80 44 l-63 62 0 238 c0 218 2 242 21 290 12
29 25 63 30 76 10 26 13 27 49 6z m1040 9 c0 -3 -12 -39 -27 -80 l-28 -73
-267 0 -267 0 -80 31 -80 32 14 28 c8 15 27 37 41 48 26 20 37 21 360 21 184
0 334 -3 334 -7z m100 -9 c59 -35 60 -42 60 -386 0 -308 0 -315 -21 -334 -21
-19 -22 -19 -80 46 l-59 65 0 237 c0 218 2 242 21 290 12 29 25 63 30 76 10
26 13 27 49 6z m-3412 -176 l52 -19 0 -207 0 -206 -62 -63 c-58 -59 -63 -62
-80 -46 -17 15 -18 39 -18 299 l0 284 28 -11 c15 -6 51 -20 80 -31z m1575 -15
c15 -5 17 -24 17 -212 l0 -207 -65 -64 c-63 -63 -65 -63 -85 -45 -19 17 -20
29 -20 301 l0 284 68 -26 c37 -14 75 -28 85 -31z m1140 0 c15 -5 17 -24 17
-212 l0 -207 -65 -64 c-63 -63 -65 -63 -85 -45 -19 17 -20 29 -20 301 l0 283
68 -26 c37 -14 75 -28 85 -30z m-1523 -223 l0 -80 -80 0 -80 0 0 80 0 80 80 0
80 0 0 -80z m-516 -312 l35 -43 -37 -37 -36 -38 -291 0 -291 0 -39 40 -39 40
39 40 39 40 292 0 292 0 36 -42z m-626 -402 l-3 -208 -77 -29 -78 -28 0 281
c0 250 2 284 17 300 16 18 19 16 80 -44 l63 -63 -2 -209z m734 317 c17 -15 18
-38 18 -326 0 -344 -2 -359 -65 -393 -19 -10 -36 -16 -38 -14 -2 3 -18 43 -36
88 l-31 84 0 226 0 226 62 63 c34 35 64 63 67 63 2 0 13 -7 23 -17z m745 -45
l63 -62 0 -207 0 -207 -82 -30 -83 -30 -3 281 c-2 250 -1 282 14 299 10 10 20
18 23 18 3 0 34 -28 68 -62z m803 -285 c0 -340 -2 -352 -55 -387 -15 -10 -32
-15 -39 -13 -7 3 -25 38 -39 79 -27 71 -27 78 -27 308 l0 234 62 63 c58 59 63
62 80 46 17 -15 18 -40 18 -330z m337 285 l63 -62 0 -207 0 -206 -82 -30 -83
-30 -3 280 c-2 250 -1 282 14 299 10 10 20 18 23 18 3 0 34 -28 68 -62z m785
45 c17 -15 18 -39 18 -330 0 -340 -2 -352 -55 -387 -15 -10 -32 -15 -39 -13
-7 3 -25 38 -39 79 -27 71 -27 78 -27 308 l0 235 56 63 c31 34 58 62 62 62 3
0 14 -7 24 -17z m-2262 -308 l0 -85 -80 0 -80 0 0 85 0 85 80 0 80 0 0 -85z
m-579 -340 c15 -38 28 -76 28 -82 1 -10 -70 -13 -320 -13 -279 0 -326 2 -356
17 -30 14 -73 64 -73 85 0 3 35 20 78 37 l77 30 270 -2 269 -2 27 -70z m1535
-7 l31 -83 -316 -3 c-174 -1 -326 0 -338 3 -30 7 -89 60 -96 84 -4 16 8 24 72
49 l76 30 270 1 270 1 31 -82z m1141 -3 l30 -85 -324 0 c-283 0 -330 2 -360
17 -30 14 -73 64 -73 85 0 3 35 20 78 37 l77 30 270 0 271 1 31 -85z"/>
</g>
</svg>
