<svg width="254" height="144" viewBox="0 0 254 144" fill="none" xmlns="http://www.w3.org/2000/svg">
<path d="M7.45455 104.909V95.6364L48.3636 30.9091H55.0909V45.2727H50.5455L19.6364 94.1818V94.9091H74.7273V104.909H7.45455ZM51.2727 124V102.091V97.7727V30.9091H62V124H51.2727ZM122.125 125.273C115.277 125.273 109.443 123.409 104.625 119.682C99.8068 115.924 96.125 110.485 93.5795 103.364C91.0341 96.2121 89.7614 87.5758 89.7614 77.4545C89.7614 67.3939 91.0341 58.803 93.5795 51.6818C96.1553 44.5303 99.8523 39.0758 104.67 35.3182C109.519 31.5303 115.337 29.6364 122.125 29.6364C128.913 29.6364 134.716 31.5303 139.534 35.3182C144.383 39.0758 148.08 44.5303 150.625 51.6818C153.201 58.803 154.489 67.3939 154.489 77.4545C154.489 87.5758 153.216 96.2121 150.67 103.364C148.125 110.485 144.443 115.924 139.625 119.682C134.807 123.409 128.973 125.273 122.125 125.273ZM122.125 115.273C128.913 115.273 134.186 112 137.943 105.455C141.701 98.9091 143.58 89.5758 143.58 77.4545C143.58 69.3939 142.716 62.5303 140.989 56.8636C139.292 51.197 136.837 46.8788 133.625 43.9091C130.443 40.9394 126.61 39.4545 122.125 39.4545C115.398 39.4545 110.14 42.7727 106.352 49.4091C102.564 56.0151 100.67 65.3636 100.67 77.4545C100.67 85.5151 101.519 92.3636 103.216 98C104.913 103.636 107.352 107.924 110.534 110.864C113.746 113.803 117.61 115.273 122.125 115.273ZM169.58 104.909V95.6364L210.489 30.9091H217.216V45.2727H212.67L181.761 94.1818V94.9091H236.852V104.909H169.58ZM213.398 124V102.091V97.7727V30.9091H224.125V124H213.398Z" fill="#484848"/>
</svg>
