<svg width="241" height="181" viewBox="0 0 241 181" fill="none" xmlns="http://www.w3.org/2000/svg">
<rect x="80" width="81" height="64" rx="11" fill="#074A66"/>
<rect x="39" y="130" width="30" height="51" rx="3" fill="#074A66"/>
<rect x="173" y="130" width="30" height="51" rx="3" fill="#074A66"/>
<rect y="19" width="241" height="140" rx="32" fill="#709FC0"/>
<rect x="13" y="32" width="215" height="113" rx="22" fill="#074A66"/>
<path d="M28.328 123.632L34.92 116.72H50.728L56.936 123.632H28.328ZM26.408 92.208L33.32 98.864V114.544L26.408 120.816V92.208ZM58.984 120.816L52.072 114.224V98.48L58.984 92.208V120.816ZM28.264 58.608H56.872L50.536 65.52H34.856L28.264 58.608ZM26.216 89.968V61.36L33.128 67.568V83.44L26.216 89.968ZM58.792 61.36V89.968L51.88 83.76V67.952L58.792 61.36ZM67.3555 123.632L73.9475 116.72H89.7555L95.9635 123.632H67.3555ZM65.4355 92.208L72.3475 98.864V114.544L65.4355 120.816V92.208ZM98.0115 120.816L91.0995 114.224V98.48L98.0115 92.208V120.816ZM72.8595 94.512C71.3662 93.3173 69.8515 92.144 68.3155 90.992L72.8595 87.6H90.3315L94.8115 90.992L90.3315 94.512H72.8595ZM67.2915 58.608H95.8995L89.5635 65.52H73.8835L67.2915 58.608ZM65.2435 89.968V61.36L72.1555 67.568V83.44L65.2435 89.968ZM97.8195 61.36V89.968L90.9075 83.76V67.952L97.8195 61.36ZM116.623 91.568H124.687V99.568H116.623V91.568ZM116.623 72.56H124.687V80.752H116.623V72.56ZM145.411 123.632L152.003 116.72H167.811L174.019 123.632H145.411ZM143.491 92.208L150.403 98.864V114.544L143.491 120.816V92.208ZM176.067 120.816L169.155 114.224V98.48L176.067 92.208V120.816ZM145.347 58.608H173.955L167.619 65.52H151.939L145.347 58.608ZM143.299 89.968V61.36L150.211 67.568V83.44L143.299 89.968ZM175.875 61.36V89.968L168.963 83.76V67.952L175.875 61.36ZM184.438 123.632L191.03 116.72H206.838L213.046 123.632H184.438ZM182.518 92.208L189.43 98.864V114.544L182.518 120.816V92.208ZM215.094 120.816L208.182 114.224V98.48L215.094 92.208V120.816ZM184.374 58.608H212.982L206.646 65.52H190.966L184.374 58.608ZM182.326 89.968V61.36L189.238 67.568V83.44L182.326 89.968ZM214.902 61.36V89.968L207.99 83.76V67.952L214.902 61.36Z" fill="#E68A00"/>
</svg>
