<svg xmlns="http://www.w3.org/2000/svg" version="1.1" xmlns:xlink="http://www.w3.org/1999/xlink" xmlns:svgjs="http://svgjs.com/svgjs" width="512" height="512"><svg version="1.1" xmlns="http://www.w3.org/2000/svg" width="512" height="512">
<path d="M0 0 C0.9128627 -0.00335861 1.8257254 -0.00671722 2.76625061 -0.01017761 C5.78005337 -0.01966557 8.79380042 -0.02162978 11.80761719 -0.02270508 C13.90883405 -0.02591963 16.01005069 -0.02928385 18.11126709 -0.03279114 C22.51607787 -0.03877735 26.92086904 -0.0406316 31.32568359 -0.04003906 C36.95550284 -0.03993758 42.58519559 -0.0535779 48.21498489 -0.07081127 C52.55599539 -0.08195991 56.89697561 -0.08395737 61.23799896 -0.08342934 C63.31271551 -0.08460559 65.38743293 -0.08900736 67.46213531 -0.0967617 C70.3719809 -0.1066175 73.28155581 -0.10366133 76.19140625 -0.09765625 C77.0395137 -0.10327576 77.88762115 -0.10889526 78.76142883 -0.11468506 C88.05972632 -0.0662052 95.91530811 1.17481894 102.70605469 8.00854492 C107.34257881 13.07437683 110.1366442 17.14987458 110.04980469 24.22729492 C110.04335938 25.15864258 110.03691406 26.08999023 110.03027344 27.04956055 C110.01351563 28.00926758 109.99675781 28.96897461 109.97949219 29.95776367 C109.97046875 30.93680664 109.96144531 31.91584961 109.95214844 32.92456055 C109.92866401 35.33171429 109.89582059 37.7383611 109.85449219 40.14526367 C110.60618305 40.1415765 111.35787392 40.13788933 112.13234329 40.13409042 C130.46257284 40.04557113 148.79275946 39.97947243 167.1231575 39.93801498 C175.98778228 39.91743115 184.85226397 39.88939092 193.71679688 39.84350586 C201.44738324 39.80350963 209.17786592 39.77780052 216.90855289 39.76890969 C220.99807756 39.76371647 225.08730573 39.75159884 229.17673492 39.72234344 C233.03452796 39.69497161 236.89190545 39.68686202 240.74978638 39.69283295 C242.15736915 39.69174235 243.56496741 39.68391878 244.97246552 39.66844177 C259.73700303 39.51420318 271.23748931 42.99772844 282.07714844 53.24682617 C290.50310595 62.16101673 295.1661954 72.45745968 295.12864685 84.75172424 C295.13388353 85.60522443 295.13912021 86.45872462 295.14451557 87.33808845 C295.15948857 90.19126035 295.16022014 93.04425248 295.16088867 95.89746094 C295.16851216 97.94619549 295.17693999 99.99492719 295.18611145 102.0436554 C295.20804923 107.60598458 295.21685483 113.16825878 295.22193789 118.73062634 C295.22558343 122.20927343 295.23182464 125.68790617 295.23893929 129.16654778 C295.26343483 141.31286119 295.27648515 153.45913191 295.2800293 165.60546875 C295.28366085 176.9093946 295.31352889 188.21304832 295.35543388 199.51689106 C295.39018879 209.23434167 295.40557867 218.95170236 295.40627533 228.66921467 C295.4070666 234.46726385 295.41573602 240.26503599 295.44427299 246.06302071 C295.47054136 251.52227757 295.47260977 256.98102949 295.45661736 262.44032097 C295.45480963 264.43606039 295.46143194 266.43182942 295.47743607 268.42750549 C295.6040936 285.25733678 293.13196565 297.56803057 280.97949219 310.07495117 C272.25154374 318.27499951 261.71191462 322.51532556 249.73339844 322.34057617 C248.6162571 322.33633133 248.6162571 322.33633133 247.47654724 322.33200073 C245.12319118 322.32090284 242.7702311 322.29581877 240.41699219 322.27026367 C238.81087793 322.2602204 237.20475765 322.25109691 235.59863281 322.24291992 C231.68376923 322.22099774 227.76919759 322.18654129 223.85449219 322.14526367 C223.86448494 323.10579903 223.86448494 323.10579903 223.87467957 324.08573914 C223.94107011 330.75290911 223.98630839 337.41998511 224.01928711 344.08740234 C224.0343698 346.57539688 224.05483872 349.06336484 224.08081055 351.55126953 C224.11721556 355.12824055 224.13422402 358.70485989 224.14746094 362.28198242 C224.16294479 363.39361252 224.17842865 364.50524261 224.19438171 365.65055847 C224.19460831 366.69125992 224.1948349 367.73196136 224.19506836 368.80419922 C224.20506111 370.17320625 224.20506111 370.17320625 224.21525574 371.56987 C223.77229434 374.73205192 222.75878375 376.59813398 220.85449219 379.14526367 C217.55982971 380.2434845 215.09618351 380.28548583 211.62646484 380.30639648 C210.34148102 380.31600403 209.05649719 380.32561157 207.73257446 380.33551025 C206.32790301 380.34035815 204.9232295 380.344637 203.51855469 380.34838867 C202.07750446 380.35414245 200.63645425 380.35990016 199.19540405 380.36566162 C196.17421106 380.37616295 193.15304461 380.38201134 190.13183594 380.38549805 C186.2659215 380.39098205 182.4003594 380.41501134 178.53455544 380.44347 C175.55765771 380.46211933 172.58084449 380.46730318 169.60389328 380.46883392 C168.17896981 380.47185564 166.75404766 380.479868 165.32918167 380.4930191 C163.33329519 380.51012617 161.337263 380.50634781 159.34130859 380.50170898 C158.20674225 380.50535461 157.0721759 380.50900024 155.90322876 380.51275635 C152.85449219 380.14526367 152.85449219 380.14526367 147.85449219 377.14526367 C147.85449219 358.99526367 147.85449219 340.84526367 147.85449219 322.14526367 C75.91449219 322.14526367 3.97449219 322.14526367 -70.14550781 322.14526367 C-70.14550781 340.29526367 -70.14550781 358.44526367 -70.14550781 377.14526367 C-75.07343467 380.10201979 -76.22651815 380.52208144 -81.60058594 380.53344727 C-82.8854187 380.54290375 -84.17025146 380.55236023 -85.49401855 380.56210327 C-86.88826813 380.55673324 -88.28251487 380.55058021 -89.67675781 380.54370117 C-91.11495104 380.54572366 -92.55314327 380.54863655 -93.99133301 380.55239868 C-97.00066931 380.55681387 -100.00973787 380.55041725 -103.01904297 380.53637695 C-106.86926843 380.51928519 -110.71886645 380.52913074 -114.56906891 380.54709435 C-117.53742163 380.55795417 -120.5056265 380.55447584 -123.47398376 380.54671097 C-124.89330622 380.54471502 -126.31264227 380.54714692 -127.73194885 380.55414963 C-129.71810639 380.56179942 -131.70431122 380.54806527 -133.69042969 380.53344727 C-134.81896362 380.53106049 -135.94749756 380.52867371 -137.11022949 380.5262146 C-140.53547834 380.09631935 -142.421341 379.24383629 -145.14550781 377.14526367 C-146.14672952 374.14159854 -146.26662792 372.16786774 -146.2590332 369.03125 C-146.25891991 367.46997124 -146.25891991 367.46997124 -146.25880432 365.87715149 C-146.25364304 364.75519882 -146.24848175 363.63324615 -146.24316406 362.47729492 C-146.24174911 361.32734543 -146.24033417 360.17739594 -146.23887634 358.99259949 C-146.2332721 355.31429459 -146.22071885 351.63605022 -146.20800781 347.95776367 C-146.20299336 345.46622809 -146.19843036 342.97469156 -146.19433594 340.4831543 C-146.18330129 334.37050338 -146.166559 328.25788785 -146.14550781 322.14526367 C-147.11262695 322.16621094 -148.07974609 322.1871582 -149.07617188 322.20874023 C-152.72152442 322.28205216 -156.36681428 322.32738833 -160.01269531 322.36499023 C-161.57986467 322.38490099 -163.14696179 322.41204002 -164.71386719 322.44702148 C-180.37421271 322.78746378 -192.60350335 320.16740497 -204.36816406 309.04370117 C-212.79412157 300.12951061 -217.45721102 289.83306766 -217.41966248 277.5388031 C-217.42489915 276.68530291 -217.43013583 275.83180272 -217.4355312 274.95243889 C-217.45050419 272.09926699 -217.45123577 269.24627486 -217.4519043 266.39306641 C-217.45952779 264.34433185 -217.46795561 262.29560016 -217.47712708 260.24687195 C-217.49906486 254.68454276 -217.50787046 249.12226856 -217.51295352 243.559901 C-217.51659905 240.08125391 -217.52284026 236.60262118 -217.52995491 233.12397957 C-217.55445045 220.97766616 -217.56750077 208.83139544 -217.57104492 196.68505859 C-217.57467648 185.38113274 -217.60454452 174.07747902 -217.64644951 162.77363628 C-217.68120442 153.05618567 -217.69659429 143.33882499 -217.69729096 133.62131268 C-217.69808223 127.8232635 -217.70675165 122.02549135 -217.73528862 116.22750664 C-217.76155698 110.76824978 -217.7636254 105.30949785 -217.74763298 99.85020638 C-217.74582526 97.85446695 -217.75244757 95.85869792 -217.76845169 93.86302185 C-217.89510922 77.03319056 -215.42298128 64.72249678 -203.27050781 52.21557617 C-192.21215016 41.82607079 -180.48223602 39.83834119 -165.85668945 39.91821289 C-164.40739958 39.91877763 -162.95810913 39.91845923 -161.50881958 39.91732788 C-157.58988699 39.9167558 -153.67107769 39.9284866 -149.75217366 39.9424758 C-145.65090519 39.95500733 -141.54963366 39.95615556 -137.448349 39.95852661 C-129.68891653 39.96473427 -121.92954065 39.9811354 -114.17013305 40.00122559 C-105.33338745 40.02360685 -96.49663909 40.03458362 -87.65987217 40.04461646 C-69.48838535 40.06550227 -51.31695114 40.10066433 -33.14550781 40.14526367 C-33.15855957 38.97680908 -33.17161133 37.80835449 -33.18505859 36.60449219 C-33.19561445 35.0568868 -33.20585156 33.50927921 -33.21582031 31.96166992 C-33.22995972 30.80906677 -33.22995972 30.80906677 -33.24438477 29.63317871 C-33.28552529 21.11480363 -31.39607885 14.67113514 -26.02050781 7.93823242 C-18.6542841 0.894281 -9.66030851 -0.00511317 0 0 Z " fill="#16232B" transform="translate(217.1455078125,65.854736328125)"></path>
<path d="M0 0 C0.72746995 -0.00436032 1.4549399 -0.00872064 2.20445439 -0.0132131 C4.63122412 -0.0241225 7.05742007 -0.01376784 9.48418522 -0.00342751 C11.24596813 -0.00688578 13.00774888 -0.01165149 14.76952511 -0.01760924 C19.60260585 -0.03012561 24.43550874 -0.0239459 29.26859009 -0.01465058 C34.48408816 -0.00786303 39.69955565 -0.01833991 44.91504765 -0.02659035 C55.12926083 -0.03993326 65.3434079 -0.03704736 75.55762368 -0.02835242 C83.85923067 -0.02157812 92.16081913 -0.02065807 100.46242809 -0.02392387 C101.64382492 -0.02438357 102.82522174 -0.02484327 104.04241847 -0.0253169 C106.44239362 -0.02627608 108.84236877 -0.02724872 111.24234391 -0.02823468 C133.74963151 -0.0367903 156.25688245 -0.02695191 178.76416404 -0.01083358 C198.07564637 0.00256801 217.38707459 0.00024314 236.69855595 -0.01358986 C259.12359113 -0.02964561 281.54859418 -0.03596448 303.9736343 -0.02675307 C306.36510153 -0.02579742 308.75656876 -0.02485431 311.148036 -0.02392387 C312.32468478 -0.02346105 313.50133355 -0.02299822 314.71363835 -0.02252137 C323.00457756 -0.01993134 331.2954964 -0.02430281 339.58643246 -0.03136253 C349.69139226 -0.03977773 359.79628216 -0.037497 369.90123396 -0.0215203 C375.05674703 -0.01363764 380.21214355 -0.01054596 385.36765575 -0.02046776 C390.08831793 -0.02941524 394.80875565 -0.02448079 399.5293975 -0.0085351 C401.23589984 -0.00518753 402.9424212 -0.00688085 404.64891129 -0.01416247 C425.09286751 -0.09469651 425.09286751 -0.09469651 431.43463993 6.06502342 C432.07401493 6.82814842 432.71338993 7.59127342 433.37213993 8.37752342 C432.62980106 8.73354637 431.8874622 9.08956932 431.12262821 9.45638084 C427.57975707 11.15710042 424.03801206 12.86014684 420.49713993 14.56502342 C419.84942631 14.87687584 419.20171268 15.18872826 418.53437138 15.51003075 C407.95088119 20.61009555 397.42258367 25.80974643 386.93903446 31.11263084 C381.14865106 34.03216369 375.33070201 36.81717456 369.37213993 39.37752342 C369.70213993 40.36752342 370.03213993 41.35752342 370.37213993 42.37752342 C369.47631848 45.17444507 368.52055461 47.84429627 367.43463993 50.56502342 C367.14395634 51.31461327 366.85327274 52.06420311 366.55378056 52.8365078 C365.83488957 54.68676819 365.1045934 56.5325899 364.37213993 58.37752342 C362.89958744 58.3679763 362.89958744 58.3679763 361.39728642 58.35823631 C357.67843205 58.34356701 353.96107657 58.37561763 350.24250126 58.42024803 C348.64750173 58.4332129 347.05235145 58.43428579 345.45734501 58.42220116 C334.72041154 58.35118522 326.69960437 59.73351139 317.20050907 64.87923241 C314.37213993 66.37752342 314.37213993 66.37752342 312.37213993 66.37752342 C312.40468876 67.46581444 312.43723759 68.55410545 312.47077274 69.67537498 C312.57684552 73.7685968 312.60181387 77.85921028 312.60407352 81.9536953 C312.61597452 83.71504194 312.64898475 85.47639169 312.70465946 87.23689842 C313.19203037 103.4212908 313.19203037 103.4212908 306.9917078 110.01808739 C304.5543978 112.30625837 302.04988392 114.37453444 299.37213993 116.37752342 C294.49713993 114.50252342 294.49713993 114.50252342 293.37213993 113.37752342 C293.21210505 110.71325657 293.11271104 108.07191914 293.05573368 105.40486717 C293.03495258 104.6072245 293.01417149 103.80958183 292.99276066 102.98776817 C292.92717835 100.43027731 292.86834026 97.87268062 292.80963993 95.31502342 C292.76646294 93.5851946 292.72284892 91.85537664 292.67878056 90.1255703 C292.57066254 85.87632838 292.47165458 81.62701053 292.37213993 77.37752342 C286.10213993 80.34752342 279.83213993 83.31752342 273.37213993 86.37752342 C273.33475712 88.29178123 273.29737431 90.20603905 273.25885868 92.17830467 C273.19321267 94.68223097 273.12676488 97.18613634 273.05963993 99.69002342 C273.03708134 100.95266014 273.01452274 102.21529686 272.99128056 103.5161953 C272.95583134 104.72469139 272.92038212 105.93318748 272.88385868 107.17830467 C272.8576746 108.29374657 272.83149052 109.40918846 272.80451298 110.55843163 C272.37213993 113.37752342 272.37213993 113.37752342 270.95465946 115.26473045 C269.37213993 116.37752342 269.37213993 116.37752342 267.54010868 116.38142967 C264.39408428 114.92462198 262.12134686 112.71945609 259.68463993 110.31502342 C258.93730595 109.63536522 258.93730595 109.63536522 258.17487431 108.94197655 C254.05884793 104.90413792 253.62732675 101.89074572 253.37213993 96.37752342 C252.70496952 96.71372704 252.03779911 97.04993065 251.35041142 97.39632225 C238.3802464 103.9251817 225.38425848 110.37691979 212.26813602 116.60848045 C204.91975772 120.10256867 197.62714825 123.69343774 190.37213993 127.37752342 C190.86952168 127.76831581 191.36690342 128.1591082 191.87935734 128.56174278 C195.54257071 131.75303427 197.81560398 134.05162463 198.16681767 139.02766991 C198.16572247 140.76837919 198.12693198 142.50936423 198.05573368 144.24861717 C198.04582905 145.17094643 198.03592442 146.09327568 198.02571964 147.04355431 C197.98675364 149.9690439 197.89897139 152.89068209 197.80963993 155.81502342 C197.7745028 157.80650541 197.742568 159.79804665 197.71393681 161.7896328 C197.63705051 166.65373093 197.51639625 171.51497591 197.37213993 176.37752342 C195.47881459 177.19585064 193.5823626 178.0069461 191.68463993 178.81502342 C190.62889774 179.26748436 189.57315556 179.7199453 188.48542118 180.18611717 C185.37213993 181.37752342 185.37213993 181.37752342 180.37213993 182.37752342 C180.04213993 165.87752342 179.71213993 149.37752342 179.37213993 132.37752342 C174.09213993 135.01752342 168.81213993 137.65752342 163.37213993 140.37752342 C159.41213993 142.35752342 159.41213993 142.35752342 155.37213993 144.37752342 C156.36213993 144.70752342 157.35213993 145.03752342 158.37213993 145.37752342 C158.37213993 151.31752342 158.37213993 157.25752342 158.37213993 163.37752342 C152.43213993 163.37752342 146.49213993 163.37752342 140.37213993 163.37752342 C140.04213993 159.74752342 139.71213993 156.11752342 139.37213993 152.37752342 C133.10213993 155.34752342 126.83213993 158.31752342 120.37213993 161.37752342 C120.35796024 163.16158592 120.34378056 164.94564842 120.32917118 166.78377342 C120.28225434 169.1483821 120.23400706 171.51296463 120.18463993 173.87752342 C120.17593876 175.63709373 120.17593876 175.63709373 120.16706181 177.43221092 C119.98363612 184.68771602 119.20430027 189.7936113 114.37213993 195.37752342 C111.69487397 197.89730315 111.08122294 198.37752342 107.37213993 198.37752342 C106.95061649 197.23412498 106.52909306 196.09072655 106.09479618 194.91267967 C105.54155472 193.42174083 104.98816146 191.93085831 104.43463993 190.44002342 C104.15684696 189.68527733 103.87905399 188.93053123 103.59284306 188.15291405 C102.45460542 184.48973203 102.45460542 184.48973203 100.37213993 181.37752342 C100.22956804 178.04134111 100.32985836 174.71776736 100.37213993 171.37752342 C95.09213993 174.01752342 89.81213993 176.65752342 84.37213993 179.37752342 C86.26963993 179.37752342 88.16713993 179.37752342 90.12213993 179.37752342 C95.83269657 179.86738316 95.83269657 179.86738316 97.95417118 181.87361717 C99.82573794 185.57946848 100.77505533 189.69419624 101.96198368 193.66267967 C102.36018314 194.99311302 102.36018314 194.99311302 102.76642704 196.35042381 C103.06625492 197.35383812 103.06625492 197.35383812 103.37213993 198.37752342 C102.73370655 198.33453621 102.09527317 198.291549 101.43749332 198.24725914 C60.74382546 195.67552699 33.09506094 200.27842736 -2.65813351 221.47224998 C-8.82273526 225.12130367 -15.17880437 228.26802994 -21.62786007 231.37752342 C-28.85192137 221.703971 -28.4730439 212.4402493 -28.37248898 200.92806053 C-28.37735183 198.97223704 -28.38479728 197.01641853 -28.39461422 195.06061363 C-28.41334294 189.77536981 -28.39465848 184.49087255 -28.36794996 179.20568728 C-28.34522694 173.66104204 -28.35354314 168.11643102 -28.35744381 162.57175255 C-28.35920666 153.26364081 -28.33711159 143.95582123 -28.30022335 134.64778709 C-28.25788008 123.90207589 -28.25087274 113.15679225 -28.26334727 102.4110145 C-28.27475484 92.05207701 -28.26342024 81.69328935 -28.24100018 71.33437347 C-28.23173626 66.93548422 -28.22994826 62.53668701 -28.23417187 58.13779068 C-28.23795212 52.95423742 -28.2216198 47.77111645 -28.19005108 42.58766174 C-28.18160039 40.69066596 -28.17984064 38.79362617 -28.18543148 36.8966198 C-28.23682366 16.33238184 -28.23682366 16.33238184 -21.76848507 7.97517967 C-21.14457882 7.46857811 -20.52067257 6.96197655 -19.87786007 6.44002342 C-19.26426632 5.91537498 -18.65067257 5.39072655 -18.01848507 4.85017967 C-12.15791399 1.23999128 -6.82618589 0.0025789 0 0 Z " fill="#1B2D3A" transform="translate(49.6278600692749,127.62247657775879)"></path>
<path d="M0 0 C0.9128627 -0.00335861 1.8257254 -0.00671722 2.76625061 -0.01017761 C5.78005337 -0.01966557 8.79380042 -0.02162978 11.80761719 -0.02270508 C13.90883405 -0.02591963 16.01005069 -0.02928385 18.11126709 -0.03279114 C22.51607787 -0.03877735 26.92086904 -0.0406316 31.32568359 -0.04003906 C36.95550284 -0.03993758 42.58519559 -0.0535779 48.21498489 -0.07081127 C52.55599539 -0.08195991 56.89697561 -0.08395737 61.23799896 -0.08342934 C63.31271551 -0.08460559 65.38743293 -0.08900736 67.46213531 -0.0967617 C70.3719809 -0.1066175 73.28155581 -0.10366133 76.19140625 -0.09765625 C77.0395137 -0.10327576 77.88762115 -0.10889526 78.76142883 -0.11468506 C88.05972632 -0.0662052 95.91530811 1.17481894 102.70605469 8.00854492 C107.34257881 13.07437683 110.1366442 17.14987458 110.04980469 24.22729492 C110.04335938 25.15864258 110.03691406 26.08999023 110.03027344 27.04956055 C110.01351563 28.00926758 109.99675781 28.96897461 109.97949219 29.95776367 C109.97046875 30.93680664 109.96144531 31.91584961 109.95214844 32.92456055 C109.92866401 35.33171429 109.89582059 37.7383611 109.85449219 40.14526367 C110.60618305 40.1415765 111.35787392 40.13788933 112.13234329 40.13409042 C130.46257284 40.04557113 148.79275946 39.97947243 167.1231575 39.93801498 C175.98778228 39.91743115 184.85226397 39.88939092 193.71679688 39.84350586 C201.44738324 39.80350963 209.17786592 39.77780052 216.90855289 39.76890969 C220.99807756 39.76371647 225.08730573 39.75159884 229.17673492 39.72234344 C233.03452796 39.69497161 236.89190545 39.68686202 240.74978638 39.69283295 C242.15736915 39.69174235 243.56496741 39.68391878 244.97246552 39.66844177 C259.73700303 39.51420318 271.23748931 42.99772844 282.07714844 53.24682617 C290.50310595 62.16101673 295.1661954 72.45745968 295.12864685 84.75172424 C295.13388353 85.60522443 295.13912021 86.45872462 295.14451557 87.33808845 C295.15948857 90.19126035 295.16022014 93.04425248 295.16088867 95.89746094 C295.16851216 97.94619549 295.17693999 99.99492719 295.18611145 102.0436554 C295.20804923 107.60598458 295.21685483 113.16825878 295.22193789 118.73062634 C295.22558343 122.20927343 295.23182464 125.68790617 295.23893929 129.16654778 C295.26343483 141.31286119 295.27648515 153.45913191 295.2800293 165.60546875 C295.28366085 176.9093946 295.31352889 188.21304832 295.35543388 199.51689106 C295.39018879 209.23434167 295.40557867 218.95170236 295.40627533 228.66921467 C295.4070666 234.46726385 295.41573602 240.26503599 295.44427299 246.06302071 C295.47054136 251.52227757 295.47260977 256.98102949 295.45661736 262.44032097 C295.45480963 264.43606039 295.46143194 266.43182942 295.47743607 268.42750549 C295.6040936 285.25733678 293.13196565 297.56803057 280.97949219 310.07495117 C272.25154374 318.27499951 261.71191462 322.51532556 249.73339844 322.34057617 C248.6162571 322.33633133 248.6162571 322.33633133 247.47654724 322.33200073 C245.12319118 322.32090284 242.7702311 322.29581877 240.41699219 322.27026367 C238.81087793 322.2602204 237.20475765 322.25109691 235.59863281 322.24291992 C231.68376923 322.22099774 227.76919759 322.18654129 223.85449219 322.14526367 C223.86448494 323.10579903 223.86448494 323.10579903 223.87467957 324.08573914 C223.94107011 330.75290911 223.98630839 337.41998511 224.01928711 344.08740234 C224.0343698 346.57539688 224.05483872 349.06336484 224.08081055 351.55126953 C224.11721556 355.12824055 224.13422402 358.70485989 224.14746094 362.28198242 C224.16294479 363.39361252 224.17842865 364.50524261 224.19438171 365.65055847 C224.19460831 366.69125992 224.1948349 367.73196136 224.19506836 368.80419922 C224.20506111 370.17320625 224.20506111 370.17320625 224.21525574 371.56987 C223.77229434 374.73205192 222.75878375 376.59813398 220.85449219 379.14526367 C217.55982971 380.2434845 215.09618351 380.28548583 211.62646484 380.30639648 C210.34148102 380.31600403 209.05649719 380.32561157 207.73257446 380.33551025 C206.32790301 380.34035815 204.9232295 380.344637 203.51855469 380.34838867 C202.07750446 380.35414245 200.63645425 380.35990016 199.19540405 380.36566162 C196.17421106 380.37616295 193.15304461 380.38201134 190.13183594 380.38549805 C186.2659215 380.39098205 182.4003594 380.41501134 178.53455544 380.44347 C175.55765771 380.46211933 172.58084449 380.46730318 169.60389328 380.46883392 C168.17896981 380.47185564 166.75404766 380.479868 165.32918167 380.4930191 C163.33329519 380.51012617 161.337263 380.50634781 159.34130859 380.50170898 C158.20674225 380.50535461 157.0721759 380.50900024 155.90322876 380.51275635 C152.85449219 380.14526367 152.85449219 380.14526367 147.85449219 377.14526367 C147.85449219 358.99526367 147.85449219 340.84526367 147.85449219 322.14526367 C75.91449219 322.14526367 3.97449219 322.14526367 -70.14550781 322.14526367 C-70.14550781 340.29526367 -70.14550781 358.44526367 -70.14550781 377.14526367 C-75.07343467 380.10201979 -76.22651815 380.52208144 -81.60058594 380.53344727 C-82.8854187 380.54290375 -84.17025146 380.55236023 -85.49401855 380.56210327 C-86.88826813 380.55673324 -88.28251487 380.55058021 -89.67675781 380.54370117 C-91.11495104 380.54572366 -92.55314327 380.54863655 -93.99133301 380.55239868 C-97.00066931 380.55681387 -100.00973787 380.55041725 -103.01904297 380.53637695 C-106.86926843 380.51928519 -110.71886645 380.52913074 -114.56906891 380.54709435 C-117.53742163 380.55795417 -120.5056265 380.55447584 -123.47398376 380.54671097 C-124.89330622 380.54471502 -126.31264227 380.54714692 -127.73194885 380.55414963 C-129.71810639 380.56179942 -131.70431122 380.54806527 -133.69042969 380.53344727 C-134.81896362 380.53106049 -135.94749756 380.52867371 -137.11022949 380.5262146 C-140.53547834 380.09631935 -142.421341 379.24383629 -145.14550781 377.14526367 C-146.14672952 374.14159854 -146.26662792 372.16786774 -146.2590332 369.03125 C-146.25891991 367.46997124 -146.25891991 367.46997124 -146.25880432 365.87715149 C-146.25364304 364.75519882 -146.24848175 363.63324615 -146.24316406 362.47729492 C-146.24174911 361.32734543 -146.24033417 360.17739594 -146.23887634 358.99259949 C-146.2332721 355.31429459 -146.22071885 351.63605022 -146.20800781 347.95776367 C-146.20299336 345.46622809 -146.19843036 342.97469156 -146.19433594 340.4831543 C-146.18330129 334.37050338 -146.166559 328.25788785 -146.14550781 322.14526367 C-147.11262695 322.16621094 -148.07974609 322.1871582 -149.07617188 322.20874023 C-152.72152442 322.28205216 -156.36681428 322.32738833 -160.01269531 322.36499023 C-161.57986467 322.38490099 -163.14696179 322.41204002 -164.71386719 322.44702148 C-180.37421271 322.78746378 -192.60350335 320.16740497 -204.36816406 309.04370117 C-212.79412157 300.12951061 -217.45721102 289.83306766 -217.41966248 277.5388031 C-217.42489915 276.68530291 -217.43013583 275.83180272 -217.4355312 274.95243889 C-217.45050419 272.09926699 -217.45123577 269.24627486 -217.4519043 266.39306641 C-217.45952779 264.34433185 -217.46795561 262.29560016 -217.47712708 260.24687195 C-217.49906486 254.68454276 -217.50787046 249.12226856 -217.51295352 243.559901 C-217.51659905 240.08125391 -217.52284026 236.60262118 -217.52995491 233.12397957 C-217.55445045 220.97766616 -217.56750077 208.83139544 -217.57104492 196.68505859 C-217.57467648 185.38113274 -217.60454452 174.07747902 -217.64644951 162.77363628 C-217.68120442 153.05618567 -217.69659429 143.33882499 -217.69729096 133.62131268 C-217.69808223 127.8232635 -217.70675165 122.02549135 -217.73528862 116.22750664 C-217.76155698 110.76824978 -217.7636254 105.30949785 -217.74763298 99.85020638 C-217.74582526 97.85446695 -217.75244757 95.85869792 -217.76845169 93.86302185 C-217.89510922 77.03319056 -215.42298128 64.72249678 -203.27050781 52.21557617 C-192.21215016 41.82607079 -180.48223602 39.83834119 -165.85668945 39.91821289 C-164.40739958 39.91877763 -162.95810913 39.91845923 -161.50881958 39.91732788 C-157.58988699 39.9167558 -153.67107769 39.9284866 -149.75217366 39.9424758 C-145.65090519 39.95500733 -141.54963366 39.95615556 -137.448349 39.95852661 C-129.68891653 39.96473427 -121.92954065 39.9811354 -114.17013305 40.00122559 C-105.33338745 40.02360685 -96.49663909 40.03458362 -87.65987217 40.04461646 C-69.48838535 40.06550227 -51.31695114 40.10066433 -33.14550781 40.14526367 C-33.15855957 38.97680908 -33.17161133 37.80835449 -33.18505859 36.60449219 C-33.19561445 35.0568868 -33.20585156 33.50927921 -33.21582031 31.96166992 C-33.22995972 30.80906677 -33.22995972 30.80906677 -33.24438477 29.63317871 C-33.28552529 21.11480363 -31.39607885 14.67113514 -26.02050781 7.93823242 C-18.6542841 0.894281 -9.66030851 -0.00511317 0 0 Z M-191.14550781 72.14526367 C-196.7387492 80.95411583 -195.72428984 91.46747173 -195.69482422 101.46533203 C-195.70352908 103.41938553 -195.71389892 105.37343222 -195.72579956 107.32746887 C-195.75248625 112.61264823 -195.75374758 117.89754074 -195.74867296 123.18277431 C-195.74652747 127.60366141 -195.75631559 132.02449119 -195.7658838 136.44536597 C-195.78804124 146.87849759 -195.78896707 157.31148517 -195.77685547 167.74462891 C-195.76477306 178.48981527 -195.78941221 189.23447804 -195.83199561 199.9795751 C-195.86727483 209.22321808 -195.87922306 218.46669475 -195.87272012 227.71040255 C-195.86910205 233.22331372 -195.87429018 238.73585121 -195.9021492 244.2487011 C-195.92737482 249.43398419 -195.92335431 254.61845311 -195.89732742 259.80372429 C-195.89261183 261.70032023 -195.89800815 263.59697411 -195.91457367 265.49350357 C-196.06181839 280.30057089 -196.06181839 280.30057089 -189.14550781 293.14526367 C-182.96139307 298.31296453 -178.15871833 300.26838449 -170.0704174 300.27948475 C-168.97773607 300.28301309 -168.97773607 300.28301309 -167.86298037 300.28661272 C-165.40293201 300.29331106 -162.94293636 300.29284425 -160.48287964 300.29243469 C-158.70891493 300.2957328 -156.93495097 300.29945826 -155.16098797 300.30357617 C-150.2710621 300.31361038 -145.38114851 300.31731525 -140.4912138 300.31996548 C-135.2231462 300.32386434 -129.95508836 300.33344298 -124.68702698 300.34217834 C-111.95694196 300.36195485 -99.22685613 300.37201058 -86.49675959 300.38090613 C-80.50479848 300.38528719 -74.51283825 300.39065448 -68.52087784 300.395895 C-48.60697297 300.41290865 -28.69306866 300.42740331 -8.77915764 300.43464375 C-3.60960769 300.4365537 1.55994226 300.43847403 6.72949219 300.44042969 C8.01438986 300.44091343 9.29928752 300.44139717 10.62312149 300.44189557 C31.44232662 300.45019765 52.26147434 300.47553698 73.0806544 300.50801037 C94.44593845 300.54106437 115.8111933 300.55909102 137.17650306 300.56228799 C149.17609649 300.56445464 161.17560618 300.57322609 173.17517471 300.59874916 C183.39371083 300.6204335 193.61214288 300.62851774 203.8306994 300.61878238 C209.04495268 300.6142311 214.25899115 300.61617211 219.4732151 300.63554382 C224.24778031 300.65312901 229.02197325 300.65221548 233.79654215 300.63664653 C235.52271606 300.6342634 237.24891543 300.6386305 238.97505035 300.65047518 C248.73056223 300.71326423 257.27254676 300.73381203 265.15917969 294.25073242 C265.93648438 293.30133789 265.93648438 293.30133789 266.72949219 292.33276367 C267.26316406 291.70756836 267.79683594 291.08237305 268.34667969 290.43823242 C272.17213966 284.62075831 273.29791937 279.68715564 273.24890137 272.77799988 C273.25803802 271.5545462 273.25803802 271.5545462 273.26735926 270.30637628 C273.28393946 267.58740799 273.2792206 264.86891057 273.27441406 262.14990234 C273.28175734 260.19467179 273.29034432 258.23944557 273.30007935 256.28422546 C273.32227818 250.98244627 273.32522679 245.68082258 273.32333183 240.37900329 C273.32321204 235.94824037 273.33177979 231.51751029 273.34010935 227.08675653 C273.35933804 216.63024374 273.36222937 206.17381078 273.35546875 195.71728516 C273.34883006 184.9421025 273.37168678 174.16726235 273.40878248 163.39214915 C273.43950604 154.13076184 273.45083656 144.86948454 273.44694567 135.60804731 C273.44488072 130.08119057 273.45031824 124.55460031 273.47483826 119.02779198 C273.49714622 113.82786889 273.49519365 108.62850143 273.47491074 103.42857552 C273.47150774 101.52511028 273.47655902 99.62160735 273.49089432 97.71819305 C273.62361416 82.44089371 273.62361416 82.44089371 266.29732513 69.33645916 C257.50114044 60.87354121 246.00294546 61.71375492 234.62219238 61.75758362 C232.85954592 61.75340787 231.09690214 61.74792903 229.33426332 61.74126381 C224.50344718 61.72682241 219.67280184 61.73104985 214.8419764 61.73843062 C209.62717354 61.74316314 204.41240759 61.73065176 199.19761658 61.72041321 C188.98688685 61.7032222 178.77621865 61.70238574 168.56547821 61.70762611 C160.26675471 61.71166807 151.9680494 61.71022394 143.66932678 61.70487785 C142.48806545 61.70412943 141.30680411 61.70338101 140.08974698 61.70260991 C137.69001336 61.70107843 135.29027975 61.69954008 132.89054614 61.69799494 C110.38993299 61.68426909 87.88935462 61.68970845 65.38874227 61.70118015 C44.80270646 61.7111151 24.2167605 61.69816746 3.63073856 61.67424596 C-17.50874117 61.64986641 -38.64817902 61.64024413 -59.78767252 61.64689869 C-71.65526346 61.65039313 -83.52278528 61.64814384 -95.3903656 61.63064766 C-105.49165547 61.61594012 -115.59282752 61.61527146 -125.69411504 61.63271857 C-130.84764448 61.64124236 -136.00096332 61.64334432 -141.15448189 61.62806702 C-145.87331031 61.61425145 -150.59174707 61.6189428 -155.31055266 61.63830625 C-157.01635326 61.64207614 -158.72218501 61.63911586 -160.42795795 61.6286946 C-172.28385528 61.56142014 -182.99957524 62.45362113 -191.14550781 72.14526367 Z " fill="#33485D" transform="translate(217.1455078125,65.854736328125)"></path>
<path d="M0 0 C0.9128627 -0.00335861 1.8257254 -0.00671722 2.76625061 -0.01017761 C5.78005337 -0.01966557 8.79380042 -0.02162978 11.80761719 -0.02270508 C13.90883405 -0.02591963 16.01005069 -0.02928385 18.11126709 -0.03279114 C22.51607787 -0.03877735 26.92086904 -0.0406316 31.32568359 -0.04003906 C36.95550284 -0.03993758 42.58519559 -0.0535779 48.21498489 -0.07081127 C52.55599539 -0.08195991 56.89697561 -0.08395737 61.23799896 -0.08342934 C63.31271551 -0.08460559 65.38743293 -0.08900736 67.46213531 -0.0967617 C70.3719809 -0.1066175 73.28155581 -0.10366133 76.19140625 -0.09765625 C77.0395137 -0.10327576 77.88762115 -0.10889526 78.76142883 -0.11468506 C88.05972632 -0.0662052 95.91530811 1.17481894 102.70605469 8.00854492 C112.17491739 18.35415417 109.85449219 23.6996386 109.85449219 40.14526367 C62.66449219 40.14526367 15.47449219 40.14526367 -33.14550781 40.14526367 C-33.14550781 16.86229492 -33.14550781 16.86229492 -26.02050781 7.93823242 C-18.6542841 0.894281 -9.66030851 -0.00511317 0 0 Z " fill="#1B2C3B" transform="translate(217.1455078125,65.854736328125)"></path>
<path d="M0 0 C25.08 0 50.16 0 76 0 C76.061875 8.476875 76.12375 16.95375 76.1875 25.6875 C76.22846802 29.69136841 76.22846802 29.69136841 76.27026367 33.77612305 C76.27902709 35.89631701 76.28667137 38.01651603 76.29296875 40.13671875 C76.3159906 41.78250916 76.3159906 41.78250916 76.33947754 43.46154785 C76.34002136 45.04425476 76.34002136 45.04425476 76.34057617 46.65893555 C76.35056892 48.02794258 76.35056892 48.02794258 76.36076355 49.42460632 C75.91780215 52.58678825 74.90429156 54.45287031 73 57 C69.70533752 58.09822083 67.24169132 58.14022216 63.77197266 58.16113281 C62.48698883 58.17074036 61.202005 58.1803479 59.87808228 58.19024658 C58.47341082 58.19509448 57.06873731 58.19937333 55.6640625 58.203125 C54.22301227 58.20887878 52.78196206 58.21463649 51.34091187 58.22039795 C48.31971887 58.23089928 45.29855242 58.23674767 42.27734375 58.24023438 C38.41142932 58.24571837 34.54586721 58.26974766 30.68006325 58.29820633 C27.70316552 58.31685566 24.7263523 58.32203951 21.74940109 58.32357025 C20.32447762 58.32659197 18.89955547 58.33460432 17.47468948 58.34775543 C15.478803 58.3648625 13.48277081 58.36108413 11.48681641 58.35644531 C10.35225006 58.36009094 9.21768372 58.36373657 8.04873657 58.36749268 C4.54801162 57.94551762 2.68706535 57.28907285 0 55 C-0.60127258 52.55122375 -0.60127258 52.55122375 -0.56762695 49.6105957 C-0.56702271 48.49430786 -0.56641846 47.37802002 -0.5657959 46.22790527 C-0.54021606 45.05570435 -0.51463623 43.88350342 -0.48828125 42.67578125 C-0.48324585 41.59760132 -0.47821045 40.51942139 -0.47302246 39.40856934 C-0.44683782 35.37627622 -0.3770308 31.34436175 -0.3125 27.3125 C-0.1578125 13.7928125 -0.1578125 13.7928125 0 0 Z " fill="#1A2C3A" transform="translate(365,388)"></path>
<path d="M0 0 C25.08 0 50.16 0 76 0 C76.103125 9.013125 76.20625 18.02625 76.3125 27.3125 C76.35802002 30.15657471 76.40354004 33.00064941 76.45043945 35.9309082 C76.46503918 38.1791872 76.47778105 40.42747937 76.48828125 42.67578125 C76.51386108 43.84798218 76.53944092 45.02018311 76.5657959 46.22790527 C76.56640015 47.34419312 76.56700439 48.46048096 76.56762695 49.6105957 C76.57873001 50.58100296 76.58983307 51.55141022 76.60127258 52.55122375 C76 55 76 55 73.8679657 56.81257629 C70.54911163 58.18668129 68.13375517 58.38059343 64.54492188 58.38818359 C63.26008911 58.39764008 61.97525635 58.40709656 60.65148926 58.4168396 C59.25723969 58.41146957 57.86299294 58.40531654 56.46875 58.3984375 C55.03055677 58.40045998 53.59236454 58.40337288 52.1541748 58.40713501 C49.1448385 58.4115502 46.13576994 58.40515357 43.12646484 58.39111328 C39.27623939 58.37402152 35.42664136 58.38386707 31.5764389 58.40183067 C28.60808618 58.4126905 25.63988131 58.40921217 22.67152405 58.4014473 C21.25220159 58.39945135 19.83286555 58.40188325 18.41355896 58.40888596 C16.42740143 58.41653575 14.4411966 58.4028016 12.45507812 58.38818359 C10.76227722 58.38460342 10.76227722 58.38460342 9.03527832 58.38095093 C5.61002948 57.95105568 3.72416682 57.09857262 1 55 C-0.00122171 51.99633486 -0.12112011 50.02260407 -0.11352539 46.88598633 C-0.11340454 45.83060669 -0.11328369 44.77522705 -0.11315918 43.68786621 C-0.10804321 42.58044067 -0.10292725 41.47301514 -0.09765625 40.33203125 C-0.09664917 39.31282593 -0.09564209 38.29362061 -0.09460449 37.24353027 C-0.08936913 33.43317542 -0.07540788 29.62283659 -0.0625 25.8125 C-0.041875 17.294375 -0.02125 8.77625 0 0 Z " fill="#1A2C3A" transform="translate(71,388)"></path>
<path d="M0 0 C2.52861385 0.03015659 5.0572626 0.05752225 7.5859375 0.08203125 C13.72473145 0.14752665 19.86219863 0.24741844 26 0.375 C27.00399524 2.99853518 28.00334445 5.62367795 29 8.25 C29.28617187 8.99636719 29.57234375 9.74273437 29.8671875 10.51171875 C32 16.1484375 32 16.1484375 32 18.375 C23.25495762 18.51431246 14.51029993 18.6207776 5.76438808 18.68587303 C1.70279552 18.71712356 -2.35803527 18.75947835 -6.41918945 18.82763672 C-10.34202951 18.89305818 -14.26413916 18.92875324 -18.18748283 18.94426346 C-19.68062775 18.95530942 -21.1737348 18.97688065 -22.66656685 19.00938034 C-35.8131336 19.28408103 -35.8131336 19.28408103 -40.40991211 15.71337891 C-43.06478337 12.86092275 -43.90618553 10.31520776 -44 6.375 C-29.75715663 -0.98140648 -15.70463245 -0.3276091 0 0 Z " fill="#F97215" transform="translate(388,307.625)"></path>
<path d="M0 0 C1.78302269 0.00636726 1.78302269 0.00636726 3.60206604 0.01286316 C7.38208082 0.02959624 11.1615538 0.06723985 14.94140625 0.10546875 C17.51105998 0.12052247 20.08072211 0.13420967 22.65039062 0.14648438 C28.9350793 0.17948227 35.21945406 0.22962871 41.50390625 0.29296875 C42.50790149 2.91650393 43.5072507 5.5416467 44.50390625 8.16796875 C44.79007812 8.91433594 45.07625 9.66070312 45.37109375 10.4296875 C47.50390625 16.06640625 47.50390625 16.06640625 47.50390625 18.29296875 C38.74154345 18.40898437 29.97944633 18.49774499 21.21648216 18.55202961 C17.14713729 18.57808801 13.07831911 18.6134158 9.00927734 18.67016602 C5.07998122 18.72462226 1.15119063 18.75441755 -2.77845383 18.76735497 C-4.27518036 18.77657065 -5.77188023 18.79456738 -7.26839066 18.82161903 C-20.47011587 19.05069896 -20.47011587 19.05069896 -24.37646484 15.96948242 C-26.62950953 13.12450098 -27.67694116 10.8153249 -28.49609375 7.29296875 C-27.14220842 6.6881719 -25.78796743 6.08417121 -24.43359375 5.48046875 C-23.67949219 5.14402344 -22.92539063 4.80757813 -22.1484375 4.4609375 C-21.27316406 4.07550781 -20.39789063 3.69007813 -19.49609375 3.29296875 C-18.54412109 2.77992188 -17.59214844 2.266875 -16.61132812 1.73828125 C-11.27743632 -0.52920228 -5.69736443 -0.07704186 0 0 Z " fill="#F97215" transform="translate(258.49609375,307.70703125)"></path>
<path d="M0 0 C2.48043613 0.03015826 4.96090786 0.05752363 7.44140625 0.08203125 C13.4617266 0.14750971 19.48069261 0.24738729 25.5 0.375 C28.64819255 6.23715164 30.76375242 11.9561453 32.5 18.375 C23.75495762 18.51431246 15.01029993 18.6207776 6.26438808 18.68587303 C2.20279552 18.71712356 -1.85803527 18.75947835 -5.91918945 18.82763672 C-9.84202951 18.89305818 -13.76413916 18.92875324 -17.68748283 18.94426346 C-19.18062775 18.95530942 -20.6737348 18.97688065 -22.16656685 19.00938034 C-35.3131336 19.28408103 -35.3131336 19.28408103 -39.90991211 15.71337891 C-42.56478337 12.86092275 -43.40618553 10.31520776 -43.5 6.375 C-29.36721278 -0.87391033 -15.57527915 -0.33138892 0 0 Z " fill="#F97215" transform="translate(120.5,307.625)"></path>
<path d="M0 0 C0.65421936 -0.00043808 1.30843872 -0.00087616 1.98248291 -0.00132751 C4.13080372 0.00075161 6.27833031 0.02403956 8.42651367 0.04760742 C9.92151971 0.05320653 11.41653128 0.05747514 12.9115448 0.06047058 C16.83583928 0.07189466 20.75979774 0.10134044 24.68395996 0.13458252 C28.69249934 0.16533624 32.70109331 0.17898721 36.7097168 0.1940918 C44.56729243 0.22621284 52.42459556 0.27737926 60.28198242 0.34057617 C58.5173517 6.44795059 56.58640767 12.41491125 54.28198242 18.34057617 C46.86648465 18.49418403 39.45140503 18.59839577 32.03466797 18.67016602 C29.51791046 18.70012166 27.00125538 18.74090115 24.48486328 18.79321289 C-4.13312521 19.37273142 -4.13312521 19.37273142 -14.71801758 12.34057617 C-15.04801758 11.35057617 -15.37801758 10.36057617 -15.71801758 9.34057617 C-11.88189746 2.25850826 -7.96321734 -0.04498993 0 0 Z " fill="#F67116" transform="translate(359.718017578125,167.659423828125)"></path>
<path d="M0 0 C0.65421936 -0.00043808 1.30843872 -0.00087616 1.98248291 -0.00132751 C4.13080372 0.00075161 6.27833031 0.02403956 8.42651367 0.04760742 C9.92151971 0.05320653 11.41653128 0.05747514 12.9115448 0.06047058 C16.83583928 0.07189466 20.75979774 0.10134044 24.68395996 0.13458252 C28.69249934 0.16533624 32.70109331 0.17898721 36.7097168 0.1940918 C44.56729243 0.22621284 52.42459556 0.27737926 60.28198242 0.34057617 C58.5173517 6.44795059 56.58640767 12.41491125 54.28198242 18.34057617 C47.02721752 18.49438128 39.7728821 18.5984755 32.5168457 18.67016602 C30.05542288 18.70009311 27.5941044 18.74085017 25.13305664 18.79321289 C-3.09025364 19.37809254 -3.09025364 19.37809254 -14.71801758 12.34057617 C-15.04801758 11.35057617 -15.37801758 10.36057617 -15.71801758 9.34057617 C-11.88189746 2.25850826 -7.96321734 -0.04498993 0 0 Z " fill="#F67116" transform="translate(245.718017578125,167.659423828125)"></path>
<path d="M0 0 C0.65407333 -0.00029205 1.30814667 -0.00058411 1.98204041 -0.00088501 C4.13562464 0.00050402 6.2888593 0.0160447 8.44238281 0.03173828 C9.93882051 0.03546994 11.43526065 0.03831619 12.93170166 0.04031372 C16.86414372 0.04793818 20.79643728 0.0675764 24.7288208 0.08972168 C28.74399812 0.11020573 32.75919951 0.1193209 36.77441406 0.12939453 C44.64818001 0.15082348 52.52182542 0.18494502 60.39550781 0.22705078 C58.45926483 6.43182942 56.1394164 12.33530797 53.39550781 18.22705078 C46.12243096 18.3807012 38.84978088 18.48488741 31.57543945 18.55664062 C29.10718141 18.58659013 26.63902772 18.62736485 24.17114258 18.6796875 C-4.53897491 19.27260752 -4.53897491 19.27260752 -14.60449219 12.22705078 C-15.60668945 10.22070312 -15.60668945 10.22070312 -15.60449219 8.22705078 C-11.1477374 1.86025823 -7.91059055 -0.02973906 0 0 Z " fill="#F67116" transform="translate(92.6044921875,167.77294921875)"></path>
<path d="M0 0 C5.79443359 0.83251953 5.79443359 0.83251953 7.64453125 2.33984375 C11.08292818 7.04320275 12.12535274 9.16857095 12.16113281 14.96264648 C12.17074036 16.21411972 12.1803479 17.46559296 12.19024658 18.75498962 C12.19509383 20.12702249 12.19937284 21.49905746 12.203125 22.87109375 C12.20887606 24.27352399 12.2146338 25.67595421 12.22039795 27.0783844 C12.23090672 30.01978929 12.23675039 32.96116686 12.24023438 35.90258789 C12.24572325 39.67344649 12.26975972 43.44394474 12.29820633 47.21469021 C12.31681925 50.11173055 12.32203754 53.00868379 12.32357025 55.90577888 C12.32659967 57.29607173 12.33463798 58.68636295 12.34775543 60.07659721 C12.36478811 62.020312 12.3610949 63.96417513 12.35644531 65.90795898 C12.36009094 67.01445297 12.36373657 68.12094696 12.36749268 69.26097107 C12 72 12 72 10.59223938 73.88435364 C9 75 9 75 7.16772461 74.94238281 C1.50158462 72.47912114 -3.16904849 68.50722033 -6 63 C-7.70115896 56.31102367 -7.37304054 49.3345368 -7.15942383 42.48632812 C-7.06308148 39.26941571 -7.05682129 36.06192081 -7.06445312 32.84375 C-6.96051846 20.69431557 -5.69653566 10.84992087 0 0 Z " fill="#F67116" transform="translate(310,169)"></path>
<path d="M0 0 C1.6622467 1.12321472 1.6622467 1.12321472 3 3 C3.38768005 5.71211243 3.38768005 5.71211243 3.40405273 9.02856445 C3.41673691 10.27027908 3.42942108 11.51199371 3.44248962 12.79133606 C3.44043764 14.14865281 3.43744917 15.50596842 3.43359375 16.86328125 C3.4381557 18.25709793 3.44346132 19.65091235 3.44947815 21.04472351 C3.45841577 23.96765266 3.45598069 26.89030873 3.44604492 29.81323242 C3.43457987 33.54921546 3.45472397 37.28424983 3.48396206 41.02010822 C3.50236305 43.90016115 3.50202352 46.77998868 3.49632454 49.66008568 C3.49617166 51.03672805 3.50218846 52.41338602 3.51461601 53.78997231 C3.6178433 67.10469426 3.6178433 67.10469426 -1 72 C-5.31578947 76 -5.31578947 76 -9 76 C-14.54200433 63.45449232 -16.11829995 51.96668839 -16.11181641 38.29614258 C-16.12507506 35.1698006 -16.23472665 32.05578169 -16.34765625 28.93164062 C-16.61737551 12.60194085 -16.61737551 12.60194085 -10.7729187 6.12995911 C-4.34579935 0 -4.34579935 0 0 0 Z " fill="#F67115" transform="translate(319,250)"></path>
<path d="M0 0 C5.79443359 0.83251953 5.79443359 0.83251953 7.64453125 2.33984375 C11.07938377 7.03835439 12.12547156 9.17476814 12.17700195 14.96264648 C12.18983719 16.21411972 12.20267242 17.46559296 12.21589661 18.75498962 C12.22406248 20.12702032 12.23150651 21.49905548 12.23828125 22.87109375 C12.24235678 23.56056658 12.2464323 24.25003941 12.25063133 24.96040535 C12.27148566 28.60779649 12.28579161 32.25515004 12.29516602 35.90258789 C12.30624573 39.67355392 12.34066432 43.44393231 12.38033772 47.21469021 C12.40645021 50.11173111 12.41485286 53.00863064 12.41844749 55.90577888 C12.42332533 57.29609216 12.43497343 58.68639863 12.45348549 60.07659721 C12.47776402 62.02024061 12.47450328 63.96416924 12.4699707 65.90795898 C12.47877007 67.56769997 12.47877007 67.56769997 12.48774719 69.26097107 C12 72 12 72 9.97062683 73.88075256 C9.32031998 74.25010422 8.67001312 74.61945587 8 75 C2.19755369 72.32617458 -3.10172885 68.87670492 -6 63 C-7.58747726 56.32542605 -7.26943392 49.37549295 -7.08398438 42.56176758 C-7.00061236 39.3361915 -7.00182931 36.11904589 -7.015625 32.89257812 C-6.93668557 20.71511395 -5.72356696 10.87280811 0 0 Z " fill="#F67115" transform="translate(424,169)"></path>
<path d="M0 0 C2 1 4 2 6 3 C6.09284297 11.11049658 6.16383673 19.22076965 6.20724869 27.33166695 C6.22808854 31.09825591 6.25633908 34.86448024 6.30175781 38.63085938 C6.34534598 42.26836587 6.36916419 45.90552253 6.37950897 49.54327011 C6.38687726 50.92832824 6.40126605 52.31336807 6.42292023 53.69827652 C6.62446442 67.12707899 6.62446442 67.12707899 2 72 C-2.31578947 76 -2.31578947 76 -6 76 C-11.54200433 63.45449232 -13.11829995 51.96668839 -13.11181641 38.29614258 C-13.12507506 35.1698006 -13.23472665 32.05578169 -13.34765625 28.93164062 C-13.61363566 12.59241826 -13.61363566 12.59241826 -7.62643433 6.12995911 C-5.20072018 3.87232466 -2.71567175 1.90097023 0 0 Z " fill="#F67115" transform="translate(430,250)"></path>
<path d="M0 0 C1.89198372 -0.01572556 1.89198372 -0.01572556 3.82218933 -0.0317688 C6.49055893 -0.0446147 9.1555051 -0.04482408 11.82348633 -0.02490234 C15.22412852 -0.00197097 18.62060145 -0.04225551 22.02069569 -0.10073662 C25.28464671 -0.14651191 28.54830357 -0.13251493 31.8125 -0.125 C33.02420364 -0.14746796 34.23590729 -0.16993591 35.48432922 -0.19308472 C41.78756918 -0.08975155 45.36021129 0.38289192 49.9362793 4.92919922 C51.02655491 6.2138611 52.09634735 7.51784282 53.10546875 8.8671875 C51.14031972 13.00216304 49.08871442 16.45466271 45.10546875 18.8671875 C40.76767556 19.78117732 36.49914732 19.75572561 32.078125 19.734375 C30.18470619 19.75010056 30.18470619 19.75010056 28.2530365 19.7661438 C25.5864428 19.77897788 22.92328296 19.77922081 20.25708008 19.75927734 C16.85525305 19.73629958 13.45757952 19.77671315 10.05629826 19.83511162 C6.79272269 19.88081849 3.52944537 19.86689475 0.265625 19.859375 C-1.55496681 19.89307693 -1.55496681 19.89307693 -3.41233826 19.92745972 C-11.70922943 19.79106765 -11.70922943 19.79106765 -15.2649231 17.01959229 C-17.004708 15.04603917 -18.50475378 13.09782489 -19.89453125 10.8671875 C-14.87828686 0.67821365 -11.18351588 -0.05391919 0 0 Z " fill="#FB7215" transform="translate(105.89453125,237.1328125)"></path>
<path d="M0 0 C3.875 1.875 3.875 1.875 5 3 C5.11505667 4.96195188 5.15967643 6.92806424 5.17700195 8.89331055 C5.18983719 10.15519699 5.20267242 11.41708344 5.21589661 12.71720886 C5.22406572 14.10704151 5.23150912 15.49687859 5.23828125 16.88671875 C5.24235678 17.58439676 5.2464323 18.28207478 5.25063133 19.00089455 C5.27151716 22.69712658 5.28580508 26.39332127 5.29516602 30.08959961 C5.30620582 33.90177552 5.34056935 37.71336371 5.38033772 41.52533245 C5.40653962 44.46024123 5.41486121 47.39501118 5.41844749 50.33002663 C5.42330824 51.73460652 5.43490779 53.13918042 5.45348549 54.54364586 C5.47793666 56.51552557 5.47448627 58.48769066 5.4699707 60.4597168 C5.47877007 62.14063667 5.47877007 62.14063667 5.48774719 63.85551453 C4.75542958 68.57673515 2.43054773 71.69950207 -1.0625 74.875 C-3 76 -3 76 -6 76 C-11.88090337 63.76898425 -13.1180441 52.43352422 -13.11181641 38.94433594 C-13.1250545 35.73679555 -13.23461125 32.54132608 -13.34765625 29.3359375 C-13.61406052 12.56515471 -13.61406052 12.56515471 -7.62643433 6.09136963 C-5.20205004 3.83987845 -2.72123608 1.88405127 0 0 Z " fill="#FE7315" transform="translate(163,250)"></path>
<path d="M0 0 C4.84463539 0.72344388 6.75096478 2.29970989 10 6 C11.37540188 8.75080375 11.14242117 10.97567444 11.16113281 14.05444336 C11.17074036 15.32593735 11.1803479 16.59743134 11.19024658 17.90745544 C11.19509382 19.30158306 11.19937283 20.69571275 11.203125 22.08984375 C11.20887598 23.51469424 11.21463372 24.9395447 11.22039795 26.36439514 C11.23090699 29.35287843 11.23675049 32.34133482 11.24023438 35.32983398 C11.24572333 39.16122424 11.26975987 42.99225986 11.29820633 46.82353878 C11.31681835 49.7669021 11.32203749 52.71017968 11.32357025 55.65359688 C11.32659987 57.0662181 11.33463884 58.47883771 11.34775543 59.89140129 C11.36478627 61.86625025 11.36109517 63.84124519 11.35644531 65.81616211 C11.36009094 66.94042099 11.36373657 68.06467987 11.36749268 69.2230072 C11 72 11 72 9.47772217 73.88648987 C8.74624969 74.43767738 8.74624969 74.43767738 8 75 C2.19755369 72.32617458 -3.10172885 68.87670492 -6 63 C-7.58747726 56.32542605 -7.26943392 49.37549295 -7.08398438 42.56176758 C-7.00061236 39.3361915 -7.00182931 36.11904589 -7.015625 32.89257812 C-6.93668557 20.71511395 -5.72356696 10.87280811 0 0 Z " fill="#FD7315" transform="translate(157,169)"></path>
<path d="M0 0 C4.16560871 0.77347992 7.86461872 2.00727404 11.8125 3.5625 C13.55466797 4.24505859 13.55466797 4.24505859 15.33203125 4.94140625 C16.21246094 5.29074219 17.09289062 5.64007813 18 6 C18.29934632 11.76126532 18.51557278 17.51790294 18.65917969 23.28515625 C18.71909303 25.24103712 18.80066535 27.19639043 18.90527344 29.15039062 C19.84232827 47.119795 19.84232827 47.119795 13.84893799 53.82562256 C11.3218924 56.27657094 9.05143397 58.20064086 6 60 C2.8939447 59.87800991 2.21945798 59.21945798 0 57 C-0.24050903 54.59555054 -0.24050903 54.59555054 -0.22705078 51.54052734 C-0.22689972 50.39949554 -0.22674866 49.25846375 -0.22659302 48.08285522 C-0.21627045 46.84637238 -0.20594788 45.60988953 -0.1953125 44.3359375 C-0.1924826 43.07359283 -0.18965271 41.81124817 -0.18673706 40.51065063 C-0.17742131 37.15353056 -0.15944835 33.79668088 -0.1373291 30.43963623 C-0.1168755 27.01446878 -0.1077364 23.58927341 -0.09765625 20.1640625 C-0.07556458 13.44263329 -0.04206377 6.72133227 0 0 Z " fill="#F57116" transform="translate(76,184)"></path>
<path d="M0 0 C5.74866451 2.62369786 11.09218627 6.22961434 14 12 C15.64365307 19.03906504 14.94159373 26.465203 14.625 33.625 C14.57477035 35.6027518 14.5291551 37.58062648 14.48828125 39.55859375 C14.37876837 44.37545986 14.20663483 49.18636215 14 54 C10.66666667 55.33333333 7.33333333 56.66666667 4 58 C3.12730469 58.37382812 2.25460937 58.74765625 1.35546875 59.1328125 C-1 60 -1 60 -4 60 C-4.0926611 52.62004786 -4.16374461 45.24022104 -4.20724869 37.85980511 C-4.22812821 34.43277637 -4.25645083 31.00614546 -4.30175781 27.5793457 C-4.35351325 23.64018508 -4.37294237 19.70118582 -4.390625 15.76171875 C-4.41127014 14.53039719 -4.43191528 13.29907562 -4.45318604 12.03044128 C-4.45348816 10.88948502 -4.45379028 9.74852875 -4.45410156 8.57299805 C-4.46298401 7.567061 -4.47186646 6.56112396 -4.48101807 5.52470398 C-4 3 -4 3 -1.97161865 1.15168762 C-1.3209845 0.77163071 -0.67035034 0.39157379 0 0 Z " fill="#F87115" transform="translate(347,250)"></path>
<path d="M0 0 C5.74866451 2.62369786 11.09218627 6.22961434 14 12 C15.64365307 19.03906504 14.94159373 26.465203 14.625 33.625 C14.57477035 35.6027518 14.5291551 37.58062648 14.48828125 39.55859375 C14.37876837 44.37545986 14.20663483 49.18636215 14 54 C10.66666667 55.33333333 7.33333333 56.66666667 4 58 C3.12730469 58.37382812 2.25460938 58.74765625 1.35546875 59.1328125 C-1 60 -1 60 -4 60 C-4.0926611 52.62004786 -4.16374461 45.24022104 -4.20724869 37.85980511 C-4.22812821 34.43277637 -4.25645083 31.00614546 -4.30175781 27.5793457 C-4.35351325 23.64018508 -4.37294237 19.70118582 -4.390625 15.76171875 C-4.41127014 14.53039719 -4.43191528 13.29907562 -4.45318604 12.03044128 C-4.45348816 10.88948502 -4.45379028 9.74852875 -4.45410156 8.57299805 C-4.46298401 7.567061 -4.47186646 6.56112396 -4.48101807 5.52470398 C-4 3 -4 3 -1.97161865 1.15168762 C-1.3209845 0.77163071 -0.67035034 0.39157379 0 0 Z " fill="#F67116" transform="translate(80,250)"></path>
<path d="M0 0 C4.16560871 0.77347992 7.86461872 2.00727404 11.8125 3.5625 C13.55466797 4.24505859 13.55466797 4.24505859 15.33203125 4.94140625 C16.21246094 5.29074219 17.09289062 5.64007813 18 6 C18.29934632 11.76126532 18.51557278 17.51790294 18.65917969 23.28515625 C18.71909303 25.24103712 18.80066535 27.19639043 18.90527344 29.15039062 C19.79871988 46.28354001 19.79871988 46.28354001 15.27539062 52.03710938 C12.44682819 55.07133899 9.36848918 57.58851113 6 60 C1.125 58.125 1.125 58.125 0 57 C-0.09370624 55.22008076 -0.11744271 53.43643261 -0.11352539 51.65405273 C-0.11344986 50.5129454 -0.11337433 49.37183807 -0.11329651 48.19615173 C-0.10813522 46.9545076 -0.10297394 45.71286346 -0.09765625 44.43359375 C-0.0962413 43.16983414 -0.09482635 41.90607452 -0.09336853 40.60401917 C-0.08870582 37.23875111 -0.0797148 33.8735501 -0.06866455 30.50830078 C-0.05844846 27.0765033 -0.05387049 23.64469891 -0.04882812 20.21289062 C-0.0377738 13.47524176 -0.0210171 6.73762475 0 0 Z " fill="#F87115" transform="translate(343,184)"></path>
<path d="M0 0 C5.74866451 2.62369786 11.09218627 6.22961434 14 12 C15.64365307 19.03906504 14.94159373 26.465203 14.625 33.625 C14.57477035 35.6027518 14.5291551 37.58062648 14.48828125 39.55859375 C14.37876837 44.37545986 14.20663483 49.18636215 14 54 C12.10667466 54.81832722 10.21022267 55.62942268 8.3125 56.4375 C6.72888672 57.11619141 6.72888672 57.11619141 5.11328125 57.80859375 C2.36934199 58.85865833 -0.12567743 59.46945417 -3 60 C-3.06949629 52.6199985 -3.12280914 45.2400675 -3.15543652 37.85980511 C-3.17109574 34.43286777 -3.19233804 31.00615423 -3.22631836 27.5793457 C-3.26513514 23.64016392 -3.27970716 19.70107291 -3.29296875 15.76171875 C-3.30845261 14.53039719 -3.32393646 13.29907562 -3.33988953 12.03044128 C-3.34011612 10.88948502 -3.34034271 9.74852875 -3.34057617 8.57299805 C-3.35056892 7.06409248 -3.35056892 7.06409248 -3.36076355 5.52470398 C-2.947951 2.63574944 -2.26471848 1.76386256 0 0 Z " fill="#FE7315" transform="translate(233,250)"></path>
<path d="M0 0 C5.85659906 1.66153012 11.4590134 3.47041916 17 6 C17.29934632 11.76126532 17.51557278 17.51790294 17.65917969 23.28515625 C17.71909303 25.24103712 17.80066535 27.19639043 17.90527344 29.15039062 C18.79871988 46.28354001 18.79871988 46.28354001 14.27539062 52.03710938 C11.44682819 55.07133899 8.36848918 57.58851113 5 60 C1.125 58.125 1.125 58.125 0 57 C-0.09370624 55.22008076 -0.11744271 53.43643261 -0.11352539 51.65405273 C-0.11344986 50.5129454 -0.11337433 49.37183807 -0.11329651 48.19615173 C-0.10813522 46.9545076 -0.10297394 45.71286346 -0.09765625 44.43359375 C-0.0962413 43.16983414 -0.09482635 41.90607452 -0.09336853 40.60401917 C-0.08870582 37.23875111 -0.0797148 33.8735501 -0.06866455 30.50830078 C-0.05844846 27.0765033 -0.05387049 23.64469891 -0.04882812 20.21289062 C-0.0377738 13.47524176 -0.0210171 6.73762475 0 0 Z " fill="#FE7315" transform="translate(230,184)"></path>
<path d="M0 0 C5.94 0 11.88 0 18 0 C18 5.94 18 11.88 18 18 C12.06 18 6.12 18 0 18 C0 12.06 0 6.12 0 0 Z " fill="#F67115" transform="translate(190,273)"></path>
<path d="M0 0 C5.94 0 11.88 0 18 0 C18 5.94 18 11.88 18 18 C12.06 18 6.12 18 0 18 C0 12.06 0 6.12 0 0 Z " fill="#F37016" transform="translate(190,203)"></path>
</svg><style>@media (prefers-color-scheme: light) { :root { filter: none; } }
</style></svg>